<?xml version="1.0" encoding="UTF-8" standalone="no"?>
<!-- Created with Inkscape (http://www.inkscape.org/) -->

<svg
   width="115.10528mm"
   height="21.861004mm"
   viewBox="0 0 115.10528 21.861004"
   version="1.1"
   id="svg5"
   inkscape:version="1.1.2 (0a00cf5339, 2022-02-04)"
   sodipodi:docname="godel1932.svg"
   inkscape:export-filename="/home/renato/desenho.png"
   inkscape:export-xdpi="96"
   inkscape:export-ydpi="96"
   xmlns:inkscape="http://www.inkscape.org/namespaces/inkscape"
   xmlns:sodipodi="http://sodipodi.sourceforge.net/DTD/sodipodi-0.dtd"
   xmlns:xlink="http://www.w3.org/1999/xlink"
   xmlns="http://www.w3.org/2000/svg"
   xmlns:svg="http://www.w3.org/2000/svg">
  <sodipodi:namedview
     id="namedview7"
     pagecolor="#ffffff"
     bordercolor="#666666"
     borderopacity="1.0"
     inkscape:pageshadow="2"
     inkscape:pageopacity="0.0"
     inkscape:pagecheckerboard="0"
     inkscape:document-units="mm"
     showgrid="false"
     inkscape:zoom="1.4075477"
     inkscape:cx="170.86455"
     inkscape:cy="32.325725"
     inkscape:window-width="1920"
     inkscape:window-height="962"
     inkscape:window-x="1920"
     inkscape:window-y="27"
     inkscape:window-maximized="1"
     inkscape:current-layer="layer1"
     fit-margin-top="0"
     fit-margin-left="0"
     fit-margin-right="0"
     fit-margin-bottom="0" />
  <defs
     id="defs2">
    <marker
       style="overflow:visible"
       id="Arrow1Lend"
       refX="0"
       refY="0"
       orient="auto"
       inkscape:stockid="Arrow1Lend"
       inkscape:isstock="true">
      <path
         transform="matrix(-0.8,0,0,-0.8,-10,0)"
         style="fill:context-stroke;fill-rule:evenodd;stroke:context-stroke;stroke-width:1pt"
         d="M 0,0 5,-5 -12.5,0 5,5 Z"
         id="path1080" />
    </marker>
    <g
       id="g3394">
      <symbol
         overflow="visible"
         id="symbol2163">
        <path
           style="stroke:none"
           d=""
           id="path5387" />
      </symbol>
      <symbol
         overflow="visible"
         id="symbol2986">
        <path
           style="stroke:none"
           d="M 0.453125,1.21875 C 0.375,1.5625 0.34375,1.625 -0.09375,1.625 c -0.109375,0 -0.21875,0 -0.21875,0.1875 0,0.078125 0.046875,0.125 0.125,0.125 0.265625,0 0.5625,-0.03125 0.828125,-0.03125 0.34375,0 0.671875,0.03125 1,0.03125 0.046875,0 0.171875,0 0.171875,-0.203125 C 1.8125,1.625 1.71875,1.625 1.578125,1.625 c -0.5,0 -0.5,-0.0625 -0.5,-0.15625 0,-0.125 0.421875,-1.75 0.484375,-2 0.125,0.296875 0.40625,0.640625 0.921875,0.640625 1.15625,0 2.40625,-1.453125 2.40625,-2.921875 0,-0.9375 -0.578125,-1.59375 -1.328125,-1.59375 -0.5,0 -0.984375,0.359375 -1.3125,0.75 -0.09375,-0.546875 -0.53125,-0.75 -0.890625,-0.75 -0.46875,0 -0.65625,0.390625 -0.734375,0.5625 C 0.4375,-3.5 0.3125,-2.90625 0.3125,-2.875 c 0,0.109375 0.09375,0.109375 0.109375,0.109375 0.109375,0 0.109375,-0.015625 0.171875,-0.234375 0.171875,-0.703125 0.375,-1.1875 0.734375,-1.1875 0.171875,0 0.3125,0.078125 0.3125,0.453125 0,0.234375 -0.03125,0.34375 -0.078125,0.515625 z m 1.75,-4.328125 C 2.265625,-3.375 2.546875,-3.65625 2.71875,-3.8125 c 0.359375,-0.296875 0.640625,-0.375 0.8125,-0.375 0.390625,0 0.640625,0.34375 0.640625,0.9375 0,0.59375 -0.328125,1.734375 -0.515625,2.109375 -0.34375,0.703125 -0.8125,1.03125 -1.1875,1.03125 C 1.8125,-0.109375 1.6875,-0.9375 1.6875,-1 c 0,-0.015625 0,-0.03125 0.03125,-0.15625 z m 0,0"
           id="path5969" />
      </symbol>
      <symbol
         overflow="visible"
         id="symbol2731">
        <path
           style="stroke:none"
           d=""
           id="path9243" />
      </symbol>
      <symbol
         overflow="visible"
         id="symbol9863">
        <path
           style="stroke:none"
           d="m 2.328125,-4.4375 c 0,-0.1875 0,-0.1875 -0.203125,-0.1875 -0.453125,0.4375 -1.078125,0.4375 -1.359375,0.4375 v 0.25 c 0.15625,0 0.625,0 1,-0.1875 v 3.546875 c 0,0.234375 0,0.328125 -0.6875,0.328125 H 0.8125 V 0 c 0.125,0 0.984375,-0.03125 1.234375,-0.03125 0.21875,0 1.09375,0.03125 1.25,0.03125 V -0.25 H 3.03125 c -0.703125,0 -0.703125,-0.09375 -0.703125,-0.328125 z m 0,0"
           id="path7721" />
      </symbol>
      <symbol
         overflow="visible"
         id="symbol7015">
        <path
           style="stroke:none"
           d="M 3.515625,-1.265625 H 3.28125 c -0.015625,0.15625 -0.09375,0.5625 -0.1875,0.625 C 3.046875,-0.59375 2.515625,-0.59375 2.40625,-0.59375 H 1.125 c 0.734375,-0.640625 0.984375,-0.84375 1.390625,-1.171875 0.515625,-0.40625 1,-0.84375 1,-1.5 0,-0.84375 -0.734375,-1.359375 -1.625,-1.359375 -0.859375,0 -1.453125,0.609375 -1.453125,1.25 0,0.34375 0.296875,0.390625 0.375,0.390625 0.15625,0 0.359375,-0.125 0.359375,-0.375 0,-0.125 -0.046875,-0.375 -0.40625,-0.375 C 0.984375,-4.21875 1.453125,-4.375 1.78125,-4.375 c 0.703125,0 1.0625,0.546875 1.0625,1.109375 0,0.609375 -0.4375,1.078125 -0.65625,1.328125 L 0.515625,-0.265625 C 0.4375,-0.203125 0.4375,-0.1875 0.4375,0 h 2.875 z m 0,0"
           id="path2784" />
      </symbol>
      <symbol
         overflow="visible"
         id="symbol6135">
        <path
           style="stroke:none"
           d="m 1.90625,-2.328125 c 0.546875,0 0.9375,0.375 0.9375,1.125 0,0.859375 -0.515625,1.125 -0.90625,1.125 -0.28125,0 -0.90625,-0.078125 -1.1875,-0.5 0.328125,0 0.40625,-0.234375 0.40625,-0.390625 0,-0.21875 -0.171875,-0.375 -0.390625,-0.375 -0.1875,0 -0.390625,0.125 -0.390625,0.40625 0,0.65625 0.71875,1.078125 1.5625,1.078125 0.96875,0 1.640625,-0.65625 1.640625,-1.34375 0,-0.546875 -0.4375,-1.09375 -1.203125,-1.25 0.71875,-0.265625 0.984375,-0.78125 0.984375,-1.21875 0,-0.546875 -0.625,-0.953125 -1.40625,-0.953125 -0.765625,0 -1.359375,0.375 -1.359375,0.9375 0,0.234375 0.15625,0.359375 0.359375,0.359375 0.21875,0 0.359375,-0.15625 0.359375,-0.34375 0,-0.203125 -0.140625,-0.359375 -0.359375,-0.375 0.25,-0.296875 0.71875,-0.375 0.984375,-0.375 0.3125,0 0.75,0.15625 0.75,0.75 0,0.296875 -0.09375,0.625 -0.28125,0.828125 -0.21875,0.265625 -0.421875,0.28125 -0.765625,0.3125 -0.171875,0.015625 -0.1875,0.015625 -0.21875,0.015625 -0.015625,0 -0.078125,0.015625 -0.078125,0.09375 0,0.09375 0.0625,0.09375 0.1875,0.09375 z m 0,0"
           id="path9023" />
      </symbol>
      <symbol
         overflow="visible"
         id="symbol7548">
        <path
           style="stroke:none"
           d=""
           id="path7971" />
      </symbol>
      <symbol
         overflow="visible"
         id="symbol5349">
        <path
           style="stroke:none"
           d="m 0.84375,-0.4375 c -0.015625,0.09375 -0.0625,0.265625 -0.0625,0.28125 0,0.15625 0.125,0.21875 0.234375,0.21875 0.125,0 0.234375,-0.078125 0.28125,-0.140625 0.03125,-0.0625 0.078125,-0.296875 0.125,-0.4375 0.03125,-0.125 0.109375,-0.453125 0.140625,-0.625 0.046875,-0.15625 0.09375,-0.3125 0.125,-0.46875 0.078125,-0.28125 0.09375,-0.34375 0.296875,-0.625 C 2.171875,-2.515625 2.5,-2.875 3.03125,-2.875 c 0.390625,0 0.40625,0.359375 0.40625,0.484375 0,0.421875 -0.296875,1.1875 -0.40625,1.484375 -0.078125,0.203125 -0.109375,0.265625 -0.109375,0.375 0,0.375 0.296875,0.59375 0.65625,0.59375 0.703125,0 1,-0.953125 1,-1.0625 0,-0.09375 -0.078125,-0.09375 -0.109375,-0.09375 -0.09375,0 -0.09375,0.046875 -0.125,0.125 C 4.1875,-0.40625 3.875,-0.125 3.609375,-0.125 c -0.15625,0 -0.1875,-0.09375 -0.1875,-0.25 0,-0.15625 0.046875,-0.25 0.171875,-0.5625 0.078125,-0.21875 0.359375,-0.953125 0.359375,-1.34375 0,-0.671875 -0.53125,-0.796875 -0.90625,-0.796875 -0.578125,0 -0.96875,0.359375 -1.171875,0.640625 -0.046875,-0.484375 -0.453125,-0.640625 -0.75,-0.640625 -0.296875,0 -0.453125,0.21875 -0.546875,0.375 -0.15625,0.265625 -0.25,0.65625 -0.25,0.703125 0,0.078125 0.09375,0.078125 0.125,0.078125 0.09375,0 0.09375,-0.015625 0.140625,-0.203125 0.109375,-0.40625 0.25,-0.75 0.515625,-0.75 0.1875,0 0.234375,0.15625 0.234375,0.34375 0,0.125 -0.0625,0.390625 -0.125,0.578125 -0.046875,0.1875 -0.109375,0.46875 -0.140625,0.625 z m 0,0"
           id="path4930" />
      </symbol>
      <symbol
         overflow="visible"
         id="symbol3608">
        <path
           style="stroke:none"
           d=""
           id="path6996" />
      </symbol>
      <symbol
         overflow="visible"
         id="symbol5621">
        <path
           style="stroke:none"
           d="m 5.1875,-1.578125 c 0.109375,0 0.28125,0 0.28125,-0.15625 0,-0.1875 -0.171875,-0.1875 -0.28125,-0.1875 H 1.03125 c -0.109375,0 -0.28125,0 -0.28125,0.171875 0,0.171875 0.15625,0.171875 0.28125,0.171875 z m 0,0"
           id="path3306" />
      </symbol>
    </g>
  </defs>
  <g
     inkscape:label="Camada 1"
     inkscape:groupmode="layer"
     id="layer1"
     transform="translate(-40.768267,-58.16354)">
    <circle
       style="fill:#000000;fill-rule:evenodd;stroke-width:0.264583"
       id="path31"
       cx="45.079456"
       cy="70.440079"
       r="1.7403491"
       inkscape:export-filename="/home/renato/path31.png"
       inkscape:export-xdpi="96"
       inkscape:export-ydpi="96" />
    <circle
       style="fill:#000000;fill-rule:evenodd;stroke-width:0.264583"
       id="circle131"
       cx="66.277191"
       cy="70.440079"
       r="1.7403491"
       inkscape:export-filename="/home/renato/path31.png"
       inkscape:export-xdpi="96"
       inkscape:export-ydpi="96" />
    <circle
       style="fill:#000000;fill-rule:evenodd;stroke-width:0.264583"
       id="circle133"
       cx="87.447739"
       cy="70.440079"
       r="1.7403491"
       inkscape:export-filename="/home/renato/path31.png"
       inkscape:export-xdpi="96"
       inkscape:export-ydpi="96" />
    <circle
       style="fill:#000000;fill-rule:evenodd;stroke-width:0.0783604"
       id="circle135"
       cx="111.23468"
       cy="70.440079"
       r="0.51543152"
       inkscape:export-filename="/home/renato/path31.png"
       inkscape:export-xdpi="96"
       inkscape:export-ydpi="96" />
    <circle
       style="fill:#000000;fill-rule:evenodd;stroke-width:0.264583"
       id="circle139"
       cx="129.75554"
       cy="70.440079"
       r="1.7403491"
       inkscape:export-filename="/home/renato/path31.png"
       inkscape:export-xdpi="96"
       inkscape:export-ydpi="96" />
    <circle
       style="fill:#000000;fill-rule:evenodd;stroke-width:0.0783604"
       id="circle141"
       cx="116.52637"
       cy="70.440079"
       r="0.51543152"
       inkscape:export-filename="/home/renato/path31.png"
       inkscape:export-xdpi="96"
       inkscape:export-ydpi="96" />
    <circle
       style="fill:#000000;fill-rule:evenodd;stroke-width:0.0783604"
       id="circle143"
       cx="121.81805"
       cy="70.440079"
       r="0.51543152"
       inkscape:export-filename="/home/renato/path31.png"
       inkscape:export-xdpi="96"
       inkscape:export-ydpi="96" />
    <circle
       style="fill:#000000;fill-rule:evenodd;stroke-width:0.264583"
       id="circle145"
       cx="150.92223"
       cy="70.440079"
       r="1.7403491"
       inkscape:export-filename="/home/renato/path31.png"
       inkscape:export-xdpi="96"
       inkscape:export-ydpi="96" />
    <path
       style="fill:none;stroke:#000000;stroke-width:0.241708px;stroke-linecap:butt;stroke-linejoin:miter;stroke-opacity:1;marker-end:url(#Arrow1Lend)"
       d="M 45.23537,70.320341 H 63.552958"
       id="path180"
       inkscape:export-filename="/home/renato/path31.png"
       inkscape:export-xdpi="96"
       inkscape:export-ydpi="96" />
    <path
       style="fill:none;stroke:#000000;stroke-width:0.241708px;stroke-linecap:butt;stroke-linejoin:miter;stroke-opacity:1;marker-end:url(#Arrow1Lend)"
       d="M 66.402038,70.320341 H 84.719626"
       id="path1345"
       inkscape:export-filename="/home/renato/path31.png"
       inkscape:export-xdpi="96"
       inkscape:export-ydpi="96" />
    <path
       style="fill:none;stroke:#000000;stroke-width:0.241708px;stroke-linecap:butt;stroke-linejoin:miter;stroke-opacity:1;marker-end:url(#Arrow1Lend)"
       d="M 87.568706,70.320341 H 105.8863"
       id="path1347"
       inkscape:export-filename="/home/renato/path31.png"
       inkscape:export-xdpi="96"
       inkscape:export-ydpi="96" />
    <path
       style="fill:none;stroke:#000000;stroke-width:0.241708px;stroke-linecap:butt;stroke-linejoin:miter;stroke-opacity:1;marker-end:url(#Arrow1Lend)"
       d="m 129.90206,70.320341 h 18.3176"
       id="path1349"
       inkscape:export-filename="/home/renato/path31.png"
       inkscape:export-xdpi="96"
       inkscape:export-ydpi="96" />
    <text
       xml:space="preserve"
       style="font-style:normal;font-weight:normal;font-size:5.5626px;line-height:1.25;font-family:sans-serif;fill:#000000;fill-opacity:1;stroke:none;stroke-width:0.139065"
       x="43.261017"
       y="79.948494"
       id="text3531"
       inkscape:export-filename="/home/renato/path31.png"
       inkscape:export-xdpi="96"
       inkscape:export-ydpi="96"><tspan
         sodipodi:role="line"
         id="tspan3529"
         style="stroke-width:0.139065"
         x="43.261017"
         y="79.948494">1</tspan></text>
    <text
       xml:space="preserve"
       style="font-style:normal;font-weight:normal;font-size:5.5626px;line-height:1.25;font-family:sans-serif;fill:#000000;fill-opacity:1;stroke:none;stroke-width:0.139065"
       x="64.582336"
       y="79.985161"
       id="text7759"
       inkscape:export-filename="/home/renato/path31.png"
       inkscape:export-xdpi="96"
       inkscape:export-ydpi="96"><tspan
         sodipodi:role="line"
         id="tspan7757"
         style="stroke-width:0.139065"
         x="64.582336"
         y="79.985161">2</tspan></text>
    <text
       xml:space="preserve"
       style="font-style:normal;font-weight:normal;font-size:5.5626px;line-height:1.25;font-family:sans-serif;fill:#000000;fill-opacity:1;stroke:none;stroke-width:0.139065"
       x="85.689049"
       y="79.945778"
       id="text11085"
       inkscape:export-filename="/home/renato/path31.png"
       inkscape:export-xdpi="96"
       inkscape:export-ydpi="96"><tspan
         sodipodi:role="line"
         id="tspan11083"
         style="stroke-width:0.139065"
         x="85.689049"
         y="79.945778">3</tspan></text>
    <text
       xml:space="preserve"
       style="font-style:normal;font-weight:normal;font-size:5.5626px;line-height:1.25;font-family:sans-serif;fill:#000000;fill-opacity:1;stroke:none;stroke-width:0.139065"
       x="125.2237"
       y="79.948494"
       id="text15247"
       inkscape:export-filename="/home/renato/path31.png"
       inkscape:export-xdpi="96"
       inkscape:export-ydpi="96"><tspan
         sodipodi:role="line"
         id="tspan15245"
         style="stroke-width:0.139065"
         x="125.2237"
         y="79.948494">n-1</tspan></text>
    <text
       xml:space="preserve"
       style="font-style:normal;font-weight:normal;font-size:5.5626px;line-height:1.25;font-family:sans-serif;fill:#000000;fill-opacity:1;stroke:none;stroke-width:0.139065"
       x="149.14317"
       y="79.478607"
       id="text20069"
       inkscape:export-filename="/home/renato/path31.png"
       inkscape:export-xdpi="96"
       inkscape:export-ydpi="96"><tspan
         sodipodi:role="line"
         id="tspan20067"
         style="stroke-width:0.139065"
         x="149.14317"
         y="79.478607">n</tspan></text>
    <text
       xml:space="preserve"
       style="font-style:normal;font-weight:normal;font-size:10.5833px;line-height:1.25;font-family:sans-serif;fill:#000000;fill-opacity:1;stroke:none;stroke-width:0.264583"
       x="43.788391"
       y="62.405437"
       id="text27605"><tspan
         sodipodi:role="line"
         id="tspan27603"
         style="stroke-width:0.264583"
         x="43.788391"
         y="62.405437" /></text>
    <g
       id="g31236"
       transform="translate(-50.844236,-19.393207)"
       inkscape:export-filename="/home/renato/path31.png"
       inkscape:export-xdpi="96"
       inkscape:export-ydpi="96">
      <g
         style="fill:#000000;fill-opacity:1"
         id="g8174">
        <use
           xlink:href="#symbol2986"
           x="91.925003"
           y="81.962997"
           id="use1572"
           width="100%"
           height="100%" />
      </g>
      <g
         style="fill:#000000;fill-opacity:1"
         id="g22">
        <use
           xlink:href="#symbol9863"
           x="96.938004"
           y="83.457001"
           id="use4967"
           width="100%"
           height="100%" />
      </g>
    </g>
    <g
       id="g31247"
       transform="translate(-42.558369,-19.393207)"
       inkscape:export-filename="/home/renato/path31.png"
       inkscape:export-xdpi="96"
       inkscape:export-ydpi="96">
      <g
         id="g31240">
        <g
           style="fill:#000000;fill-opacity:1"
           id="g6663">
          <use
             xlink:href="#symbol2986"
             x="104.728"
             y="81.962997"
             id="use599"
             width="100%"
             height="100%" />
        </g>
      </g>
      <g
         style="fill:#000000;fill-opacity:1"
         id="g3860">
        <use
           xlink:href="#symbol7015"
           x="109.74"
           y="83.457001"
           id="use8021"
           width="100%"
           height="100%" />
      </g>
    </g>
    <g
       id="g31253"
       transform="translate(-34.222079,-19.393207)"
       inkscape:export-filename="/home/renato/path31.png"
       inkscape:export-xdpi="96"
       inkscape:export-ydpi="96">
      <g
         style="fill:#000000;fill-opacity:1"
         id="g1402">
        <use
           xlink:href="#symbol2986"
           x="117.531"
           y="81.962997"
           id="use4142"
           width="100%"
           height="100%" />
      </g>
      <g
         style="fill:#000000;fill-opacity:1"
         id="g1600">
        <use
           xlink:href="#symbol6135"
           x="122.543"
           y="83.457001"
           id="use8456"
           width="100%"
           height="100%" />
      </g>
    </g>
    <g
       id="g31263"
       transform="translate(-10.151644,-19.393207)"
       inkscape:export-filename="/home/renato/path31.png"
       inkscape:export-xdpi="96"
       inkscape:export-ydpi="96">
      <g
         style="fill:#000000;fill-opacity:1"
         id="g729">
        <use
           xlink:href="#symbol2986"
           x="130.33299"
           y="81.962997"
           id="use6615"
           width="100%"
           height="100%" />
      </g>
      <g
         style="fill:#000000;fill-opacity:1"
         id="g208">
        <use
           xlink:href="#symbol5349"
           x="135.34599"
           y="83.457001"
           id="use1797"
           width="100%"
           height="100%" />
      </g>
      <g
         style="fill:#000000;fill-opacity:1"
         id="g7215">
        <use
           xlink:href="#symbol5621"
           x="140.271"
           y="83.457001"
           id="use2628"
           width="100%"
           height="100%" />
      </g>
      <g
         style="fill:#000000;fill-opacity:1"
         id="g9480">
        <use
           xlink:href="#symbol9863"
           x="146.49699"
           y="83.457001"
           id="use1730"
           width="100%"
           height="100%" />
      </g>
    </g>
    <g
       id="g31269"
       transform="translate(-8.0045838,-19.393207)"
       inkscape:export-filename="/home/renato/path31.png"
       inkscape:export-xdpi="96"
       inkscape:export-ydpi="96">
      <g
         style="fill:#000000;fill-opacity:1"
         id="g5000">
        <use
           xlink:href="#symbol2986"
           x="154.28799"
           y="81.962997"
           id="use5779"
           width="100%"
           height="100%" />
      </g>
      <g
         style="fill:#000000;fill-opacity:1"
         id="g6231">
        <use
           xlink:href="#symbol5349"
           x="159.3"
           y="83.457001"
           id="use8800"
           width="100%"
           height="100%" />
      </g>
    </g>
  </g>
</svg>
